# xmcd
#
# Track frame offsets:
#	150
#	15827
#	31693
#	49746
#	70391
#	90226
#	109467
#	126116
#	146950
#	163815
#	181463
#	194953
#	214194
#	229871
#	248329
#
# Disc length: 3555 seconds
#
# Revision: 1
# Processed by: cddbd v1.5.2PL0 Copyright (c) Steve Scherf et al.
# Submitted via: EasyCDDAExtractor 6.2.0.3
#
DISCID=d30de10f
DTITLE=The Corrs - In Blue
DYEAR=1995
DGENRE=Pop
TTITLE0=Breathless
TTITLE1=Give me a reason
TTITLE2=Somebody for someone
TTITLE3=Say
TTITLE4=All the love in the world
TTITLE5=Radio
TTITLE6=Irresistible
TTITLE7=one night
TTITLE8=all in a day
TTITLE9=at your side
TTITLE10=no more cry
TTITLE11=rain
TTITLE12=give it all up
TTITLE13=hurt before
TTITLE14=Erin shore (instrumental)
EXTD=
EXTT0=
EXTT1=
EXTT2=
EXTT3=
EXTT4=
EXTT5=
EXTT6=
EXTT7=
EXTT8=
EXTT9=
EXTT10=
EXTT11=
EXTT12=
EXTT13=
EXTT14=
PLAYORDER=
